<svg width="200" height="80" viewBox="0 0 200 80" fill="none" xmlns="http://www.w3.org/2000/svg">
  <!-- Background Circle -->
  <circle cx="40" cy="40" r="35" fill="#5A8FA3"/>
  
  <!-- House Shape -->
  <path d="M20 35 L40 20 L60 35 L60 55 L50 55 L50 45 L30 45 L30 55 L20 55 Z" fill="white"/>
  <rect x="52" y="25" width="6" height="8" fill="white"/>
  
  <!-- Left Leaf -->
  <ellipse cx="25" cy="58" rx="18" ry="12" fill="#A4B494" transform="rotate(-20 25 58)"/>
  <path d="M15 60 Q25 50 35 60 Q30 65 25 68 Q20 65 15 60" fill="#8FA384"/>
  
  <!-- Right Leaf -->
  <ellipse cx="55" cy="58" rx="18" ry="12" fill="#A4B494" transform="rotate(20 55 58)"/>
  <path d="M45 60 Q55 50 65 60 Q60 65 55 68 Q50 65 45 60" fill="#8FA384"/>
  
  <!-- Text "alc" -->
  <text x="90" y="45" font-family="Arial, sans-serif" font-size="32" font-weight="normal" fill="#5A8FA3">alc</text>
  
  <!-- Underline -->
  <line x1="90" y1="50" x2="170" y2="50" stroke="#A4B494" stroke-width="2"/>
  
  <!-- "Assisted Living Center" -->
  <text x="90" y="65" font-family="Arial, sans-serif" font-size="11" fill="#5A8FA3">Assisted Living Center</text>
</svg>